<svg width="600" height="429" viewBox="0 0 600 429" fill="none" xmlns="http://www.w3.org/2000/svg">
<g id="Hello_my_name_is 1">
<g clip-path="url(#clip0)">
<g id="layer1">
<path id="rect2991" d="M570.098 0H29.9016C13.3874 0 0 14.4422 0 32.2575V396.406C0 414.221 13.3874 428.663 29.9016 428.663H570.098C586.613 428.663 600 414.221 600 396.406V32.2575C600 14.4422 586.613 0 570.098 0Z" fill="#13A0DC"/>
<g id="text3761">
<path id="path3955" d="M236.661 93.7529V19.7529H222.961V49.8529H196.461V19.7529H182.761V93.7529H196.461V62.6529H222.961V93.7529H236.661Z" fill="white"/>
<path id="path3957" d="M304.63 65.2529C304.63 49.1529 292.13 36.3529 275.93 36.3529C259.13 36.3529 246.73 49.5529 246.73 66.1529C246.73 82.6528 259.43 95.5529 276.03 95.5529C287.83 95.5529 299.23 87.5529 302.83 76.2529H288.83C286.13 81.1529 281.43 83.3529 276.03 83.3529C270.53 83.3529 265.53 80.5529 262.53 75.9529C261.73 74.7529 261.03 73.4529 260.73 71.9529H303.83C304.33 69.7529 304.63 67.4529 304.63 65.2529V65.2529ZM291.03 61.2529H260.33C262.23 53.3529 267.93 48.5529 276.03 48.5529C284.13 48.5529 289.73 53.2529 291.03 61.2529Z" fill="white"/>
<path id="path3959" d="M326.392 93.7529V19.7529H313.092V93.7529H326.392Z" fill="white"/>
<path id="path3961" d="M350.416 93.7529V19.7529H337.116V93.7529H350.416Z" fill="white"/>
<path id="path3963" d="M417.239 65.8529C417.239 49.5529 404.239 36.3529 387.839 36.3529C371.439 36.3529 358.239 49.7529 358.239 66.0529C358.239 82.2528 371.639 95.5529 387.839 95.5529C404.639 95.5529 417.239 82.6529 417.239 65.8529ZM403.939 66.1529C403.939 75.2529 397.239 83.3529 387.839 83.3529C378.239 83.3529 371.539 75.3528 371.539 66.0529C371.539 57.0529 378.439 48.5529 387.839 48.5529C397.239 48.5529 403.939 57.2529 403.939 66.1529Z" fill="white"/>
</g>
<g id="text3769">
<path id="path3966" d="M213.486 137.753V123.057C213.486 116.765 210.01 112.717 203.542 112.717C199.978 112.717 197.382 113.817 195.49 116.809C194.214 114.081 190.782 112.717 187.922 112.717C184.71 112.717 182.95 113.641 180.926 116.017H180.838V113.377H176.614V137.753H181.19V124.157C181.19 120.065 182.51 116.897 187.218 116.897C189.11 116.897 190.694 117.557 191.75 119.185C192.762 120.813 192.762 122.353 192.762 124.201V137.753H197.338V124.157C197.338 120.153 198.394 116.897 203.146 116.897C207.634 116.897 208.91 120.373 208.91 124.201V137.753H213.486" fill="white"/>
<path id="path3968" d="M239.904 113.377H234.976L227.628 132.297L220.456 113.377H215.528L225.252 137.269L221.688 145.893H226.44L239.904 113.377" fill="white"/>
<path id="path3970" d="M277.882 137.753V123.321C277.882 121.165 277.53 118.921 276.342 117.073C274.45 114.081 271.194 112.717 267.718 112.717C264.902 112.717 262.35 113.641 260.59 115.973H260.502V113.377H256.234V137.753H260.81V124.465C260.81 120.373 262.746 116.897 267.234 116.897C272.074 116.897 273.306 120.373 273.306 124.509V137.753H277.882Z" fill="white"/>
<path id="path3972" d="M308.289 137.753V113.377H303.712V116.809H303.625C301.821 114.037 298.609 112.717 295.353 112.717C287.961 112.717 282.417 118.261 282.417 125.653C282.417 133.001 288.049 138.369 295.353 138.369C298.697 138.369 301.909 136.917 303.625 133.969H303.712V137.753H308.289V137.753ZM303.801 125.609C303.801 130.317 300.06 134.189 295.309 134.189C290.645 134.189 286.993 130.185 286.993 125.609C286.993 120.857 290.513 116.897 295.353 116.897C300.324 116.897 303.801 120.725 303.801 125.609Z" fill="white"/>
<path id="path3974" d="M351.072 137.753V123.057C351.072 116.765 347.596 112.717 341.128 112.717C337.564 112.717 334.968 113.817 333.076 116.809C331.8 114.081 328.368 112.717 325.508 112.717C322.296 112.717 320.536 113.641 318.512 116.017H318.424V113.377H314.2V137.753H318.776V124.157C318.776 120.065 320.096 116.897 324.804 116.897C326.696 116.897 328.28 117.557 329.336 119.185C330.348 120.813 330.348 122.353 330.348 124.201V137.753H334.924V124.157C334.924 120.153 335.98 116.897 340.732 116.897C345.22 116.897 346.496 120.373 346.496 124.201V137.753H351.072" fill="white"/>
<path id="path3976" d="M380.583 125.257C380.583 118.393 375.083 112.717 368.175 112.717C361.047 112.717 355.679 118.481 355.679 125.521C355.679 132.341 361.135 138.369 368.087 138.369C373.411 138.369 377.943 135.069 379.791 130.097H375.215C373.895 132.649 371.123 134.189 368.263 134.189C364.259 134.189 361.179 131.329 360.255 127.545H380.451C380.539 126.797 380.583 126.005 380.583 125.257V125.257ZM376.007 124.025H360.255C360.519 120.021 364.171 116.897 368.131 116.897C372.091 116.897 375.743 120.021 376.007 124.025" fill="white"/>
<path id="path3978" d="M402.737 110.561V105.193H398.161V110.561H402.737ZM402.737 137.753V113.377H398.161V137.753H402.737Z" fill="white"/>
<path id="path3980" d="M423.386 130.581C423.386 125.873 420.042 123.893 416.038 122.661C414.366 122.133 412.254 121.649 412.254 119.493C412.254 117.865 413.574 116.897 415.114 116.897C416.962 116.897 418.018 118.085 418.238 119.845H422.814C422.726 115.621 419.514 112.717 415.334 112.717C411.33 112.717 407.678 115.577 407.678 119.757C407.678 128.381 418.81 125.741 418.81 130.845C418.81 132.957 417.314 134.189 415.29 134.189C412.562 134.189 411.33 132.253 411.154 129.745H406.578C406.578 133.573 408.47 136.521 412.078 137.797C413.09 138.149 414.146 138.369 415.202 138.369C419.866 138.369 423.386 135.377 423.386 130.581" fill="white"/>
</g>
<path id="rect3773" d="M600 161.467H0V394.324H600V161.467Z" fill="white"/>
</g>
<g id="pFname">
<path id="P" d="M54.4043 263.798C54.4043 260.578 53.5505 258.283 51.8428 256.911C50.1631 255.539 47.7975 254.854 44.7461 254.854H32.6943V273.078H44.7461C47.7975 273.078 50.1631 272.336 51.8428 270.853C53.5505 269.369 54.4043 267.017 54.4043 263.798ZM67.2119 263.714C67.2119 271.021 65.3643 276.186 61.6689 279.209C57.9736 282.232 52.6966 283.744 45.8379 283.744H32.6943V306H19.8447V244.104H46.8037C53.0186 244.104 57.9736 245.699 61.6689 248.891C65.3643 252.082 67.2119 257.023 67.2119 263.714Z" fill="black"/>
</g>
<g id="aFname">
<path id="a" d="M100.822 283.744C100.066 284.22 99.2965 284.612 98.5127 284.92C97.7568 285.2 96.707 285.466 95.3633 285.718L92.6758 286.222C90.1562 286.67 88.3506 287.215 87.2588 287.859C85.4111 288.951 84.4873 290.645 84.4873 292.94C84.4873 294.984 85.0472 296.468 86.167 297.392C87.3148 298.287 88.7005 298.735 90.3242 298.735C92.8997 298.735 95.2653 297.979 97.4209 296.468C99.6045 294.956 100.738 292.199 100.822 288.195V283.744ZM93.5576 278.159C95.7692 277.879 97.3509 277.529 98.3027 277.109C100.01 276.382 100.864 275.248 100.864 273.708C100.864 271.832 100.206 270.545 98.8906 269.845C97.6029 269.117 95.6992 268.753 93.1797 268.753C90.3522 268.753 88.3506 269.453 87.1748 270.853C86.335 271.888 85.7751 273.288 85.4951 275.052H73.9473C74.1992 271.049 75.319 267.759 77.3066 265.184C80.4701 261.152 85.901 259.137 93.5996 259.137C98.6107 259.137 103.062 260.131 106.953 262.118C110.844 264.106 112.79 267.857 112.79 273.372V294.368C112.79 295.824 112.818 297.588 112.874 299.659C112.958 301.227 113.196 302.291 113.588 302.851C113.98 303.41 114.568 303.872 115.352 304.236V306H102.334C101.97 305.076 101.718 304.208 101.578 303.396C101.438 302.585 101.326 301.661 101.242 300.625C99.5905 302.417 97.6868 303.942 95.5312 305.202C92.9557 306.686 90.0443 307.428 86.7969 307.428C82.6536 307.428 79.2243 306.252 76.5088 303.9C73.8213 301.521 72.4775 298.161 72.4775 293.822C72.4775 288.195 74.6471 284.122 78.9863 281.603C81.3659 280.231 84.8652 279.251 89.4844 278.663L93.5576 278.159Z" fill="black"/>
</g>
<g id="tFname">
<path id="t" d="M118.882 269.173V260.648H125.265V247.883H137.106V260.648H144.539V269.173H137.106V293.36C137.106 295.236 137.344 296.412 137.82 296.888C138.296 297.336 139.752 297.56 142.188 297.56C142.551 297.56 142.929 297.56 143.321 297.56C143.741 297.532 144.147 297.504 144.539 297.476V306.42L138.87 306.63C133.215 306.826 129.352 305.846 127.28 303.69C125.937 302.319 125.265 300.205 125.265 297.35V269.173H118.882Z" fill="black"/>
</g>
<g id="rFname">
<path id="r" d="M177.444 259.137C177.668 259.137 177.85 259.151 177.99 259.179C178.158 259.179 178.508 259.193 179.04 259.221V271.482C178.284 271.398 177.612 271.342 177.024 271.314C176.437 271.286 175.961 271.272 175.597 271.272C170.782 271.272 167.548 272.84 165.896 275.976C164.973 277.739 164.511 280.455 164.511 284.122V306H152.459V260.229H163.881V268.207C165.729 265.156 167.338 263.07 168.71 261.95C170.95 260.075 173.861 259.137 177.444 259.137Z" fill="black"/>
</g>
<g id="iFname">
<path id="i" d="M197.889 254.77H185.753V243.726H197.889V254.77ZM185.753 260.229H197.889V306H185.753V260.229Z" fill="black"/>
</g>
<g id="cFname">
<path id="c" d="M236.922 276.647C236.698 274.94 236.124 273.4 235.2 272.028C233.856 270.181 231.771 269.257 228.943 269.257C224.912 269.257 222.155 271.258 220.671 275.262C219.887 277.389 219.495 280.217 219.495 283.744C219.495 287.104 219.887 289.805 220.671 291.849C222.099 295.656 224.786 297.56 228.733 297.56C231.533 297.56 233.521 296.804 234.696 295.292C235.872 293.78 236.586 291.821 236.838 289.413H249.058C248.778 293.052 247.462 296.496 245.11 299.743C241.359 304.978 235.802 307.596 228.439 307.596C221.077 307.596 215.66 305.412 212.188 301.045C208.717 296.678 206.981 291.009 206.981 284.038C206.981 276.172 208.899 270.055 212.734 265.688C216.57 261.32 221.861 259.137 228.607 259.137C234.346 259.137 239.035 260.424 242.675 263C246.342 265.576 248.512 270.125 249.184 276.647H236.922Z" fill="black"/>
</g>
<g id="kFname">
<path id="k" d="M257.459 244.313H269.217V277.655L284.124 260.438H298.947L282.948 277.949L299.577 306H285.132L274.172 286.432L269.217 291.597V306H257.459V244.313Z" fill="black"/>
</g>
<g id="mLname">
<path id="M" d="M380.577 244.104H399.18V306H387.128V264.134C387.128 262.93 387.142 261.25 387.17 259.095C387.198 256.911 387.212 255.231 387.212 254.056L375.496 306H362.94L351.309 254.056C351.309 255.231 351.323 256.911 351.351 259.095C351.379 261.25 351.393 262.93 351.393 264.134V306H339.341V244.104H358.153L369.407 292.772L380.577 244.104Z" fill="black"/>
</g>
<g id="iLname">
<path id="i_2" d="M422.889 254.77H410.753V243.726H422.889V254.77ZM410.753 260.229H422.889V306H410.753V260.229Z" fill="black"/>
</g>
<g id="nLname">
<path id="n" d="M459.948 259.137C464.679 259.137 468.543 260.382 471.538 262.874C474.562 265.338 476.073 269.439 476.073 275.178V306H463.812V278.159C463.812 275.752 463.49 273.904 462.846 272.616C461.67 270.265 459.43 269.089 456.127 269.089C452.068 269.089 449.282 270.811 447.771 274.254C446.987 276.074 446.595 278.397 446.595 281.225V306H434.669V260.312H446.217V266.989C447.757 264.638 449.212 262.944 450.584 261.908C453.048 260.061 456.169 259.137 459.948 259.137Z" fill="black"/>
</g>
<g id="dLname">
<path id="d" d="M503.466 259.137C506.237 259.137 508.701 259.753 510.856 260.984C513.012 262.188 514.762 263.868 516.105 266.023V244.188H528.241V306H516.609V299.659C514.902 302.375 512.956 304.348 510.772 305.58C508.589 306.812 505.873 307.428 502.626 307.428C497.279 307.428 492.772 305.272 489.104 300.961C485.465 296.622 483.646 291.065 483.646 284.29C483.646 276.479 485.437 270.335 489.021 265.855C492.632 261.376 497.447 259.137 503.466 259.137ZM506.069 297.35C509.457 297.35 512.032 296.09 513.796 293.57C515.56 291.051 516.441 287.789 516.441 283.786C516.441 278.187 515.028 274.184 512.2 271.776C510.465 270.321 508.449 269.593 506.153 269.593C502.654 269.593 500.078 270.923 498.427 273.582C496.803 276.214 495.991 279.489 495.991 283.408C495.991 287.635 496.817 291.023 498.469 293.57C500.148 296.09 502.682 297.35 506.069 297.35Z" fill="black"/>
</g>
<g id="aLname">
<path id="a_2" d="M564.822 283.744C564.066 284.22 563.297 284.612 562.513 284.92C561.757 285.2 560.707 285.466 559.363 285.718L556.676 286.222C554.156 286.67 552.351 287.215 551.259 287.859C549.411 288.951 548.487 290.645 548.487 292.94C548.487 294.984 549.047 296.468 550.167 297.392C551.315 298.287 552.701 298.735 554.324 298.735C556.9 298.735 559.265 297.979 561.421 296.468C563.604 294.956 564.738 292.199 564.822 288.195V283.744ZM557.558 278.159C559.769 277.879 561.351 277.529 562.303 277.109C564.01 276.382 564.864 275.248 564.864 273.708C564.864 271.832 564.206 270.545 562.891 269.845C561.603 269.117 559.699 268.753 557.18 268.753C554.352 268.753 552.351 269.453 551.175 270.853C550.335 271.888 549.775 273.288 549.495 275.052H537.947C538.199 271.049 539.319 267.759 541.307 265.184C544.47 261.152 549.901 259.137 557.6 259.137C562.611 259.137 567.062 260.131 570.953 262.118C574.844 264.106 576.79 267.857 576.79 273.372V294.368C576.79 295.824 576.818 297.588 576.874 299.659C576.958 301.227 577.196 302.291 577.588 302.851C577.98 303.41 578.568 303.872 579.352 304.236V306H566.334C565.97 305.076 565.718 304.208 565.578 303.396C565.438 302.585 565.326 301.661 565.242 300.625C563.59 302.417 561.687 303.942 559.531 305.202C556.956 306.686 554.044 307.428 550.797 307.428C546.654 307.428 543.224 306.252 540.509 303.9C537.821 301.521 536.478 298.161 536.478 293.822C536.478 288.195 538.647 284.122 542.986 281.603C545.366 280.231 548.865 279.251 553.484 278.663L557.558 278.159Z" fill="black"/>
</g>
</g>
</g>
<defs>
<clipPath id="clip0">
<rect width="600" height="428.663" fill="white"/>
</clipPath>
</defs>
</svg>
