<svg width="372" height="735" viewBox="0 0 372 735" fill="none" xmlns="http://www.w3.org/2000/svg">
<g id="Phone" filter="url(#filter0_d)">
<path id="Vector" d="M367.389 172.947H363.39V63.4019C363.39 55.0758 361.75 46.8313 358.564 39.139C355.378 31.4467 350.707 24.4573 344.82 18.5699C338.933 12.6825 331.943 8.01236 324.251 4.82613C316.559 1.63989 308.314 -2.88905e-05 299.988 3.81732e-10H67.9016C59.5755 -1.96979e-05 51.3309 1.6399 43.6386 4.82614C35.9463 8.01238 28.9569 12.6825 23.0695 18.5699C17.1821 24.4574 12.5119 31.4467 9.32568 39.139C6.13944 46.8313 4.4995 55.0758 4.49951 63.4019V664.376C4.4995 672.702 6.13944 680.947 9.32568 688.639C12.5119 696.331 17.1821 703.321 23.0695 709.208C28.9569 715.096 35.9463 719.766 43.6386 722.952C51.3309 726.138 59.5755 727.778 67.9016 727.778H299.988C308.314 727.778 316.559 726.138 324.251 722.952C331.943 719.766 338.933 715.096 344.82 709.208C350.707 703.321 355.378 696.331 358.564 688.639C361.75 680.947 363.39 672.702 363.39 664.376V250.923H367.389V172.947Z" fill="#3F3D56"/>
<path id="Vector_2" d="M302.546 16.495H272.251C273.644 19.9106 274.176 23.6165 273.8 27.286C273.423 30.9556 272.15 34.4763 270.093 37.538C268.035 40.5997 265.256 43.1084 262.001 44.8431C258.745 46.5778 255.113 47.4852 251.424 47.4855H118.465C114.776 47.4852 111.144 46.5778 107.888 44.8431C104.633 43.1084 101.854 40.5997 99.7961 37.538C97.7385 34.4763 96.4654 30.9556 96.089 27.286C95.7126 23.6164 96.2444 19.9106 97.6376 16.4949H69.342C63.1242 16.4949 56.9673 17.7196 51.2228 20.099C45.4783 22.4785 40.2587 25.9661 35.862 30.3627C31.4653 34.7594 27.9777 39.979 25.5983 45.7235C23.2188 51.468 21.9941 57.6249 21.9941 63.8427V663.935C21.9941 670.153 23.2188 676.31 25.5983 682.054C27.9777 687.799 31.4653 693.018 35.862 697.415C40.2587 701.812 45.4783 705.299 51.2228 707.679C56.9673 710.058 63.1242 711.283 69.342 711.283H302.546C308.764 711.283 314.921 710.058 320.666 707.679C326.41 705.299 331.63 701.812 336.026 697.415C340.423 693.018 343.911 687.799 346.29 682.054C348.669 676.31 349.894 670.153 349.894 663.935V63.8427C349.894 57.6249 348.669 51.468 346.29 45.7235C343.911 39.979 340.423 34.7594 336.026 30.3628C331.63 25.9661 326.41 22.4785 320.666 20.0991C314.921 17.7196 308.764 16.495 302.546 16.495Z" fill="white"/>
</g>
<defs>
<filter id="filter0_d" x="0.499512" y="0" width="370.889" height="735.778" filterUnits="userSpaceOnUse" color-interpolation-filters="sRGB">
<feFlood flood-opacity="0" result="BackgroundImageFix"/>
<feColorMatrix in="SourceAlpha" type="matrix" values="0 0 0 0 0 0 0 0 0 0 0 0 0 0 0 0 0 0 127 0"/>
<feOffset dy="4"/>
<feGaussianBlur stdDeviation="2"/>
<feColorMatrix type="matrix" values="0 0 0 0 0 0 0 0 0 0 0 0 0 0 0 0 0 0 0.25 0"/>
<feBlend mode="normal" in2="BackgroundImageFix" result="effect1_dropShadow"/>
<feBlend mode="normal" in="SourceGraphic" in2="effect1_dropShadow" result="shape"/>
</filter>
</defs>
</svg>
