<svg width="188" height="188" viewBox="0 0 188 188" fill="none" xmlns="http://www.w3.org/2000/svg">
<g id="TextMessage1" filter="url(#filter0_d)">
<path id="Vector" d="M94.1834 179.779C73.5758 179.789 53.591 172.715 37.5783 159.743C21.5656 146.771 10.498 128.69 6.23041 108.529C1.9628 88.368 4.75451 67.3529 14.1376 49.0054C23.5208 30.6579 38.9251 16.0931 57.7691 7.75176C76.6131 -0.589567 97.7515 -2.20047 117.642 3.18905C137.532 8.57857 154.966 20.641 167.021 37.3547C179.076 54.0685 185.02 74.4179 183.857 94.9927C182.693 115.567 174.493 135.117 160.631 150.366L179.397 171.401L170.032 175.373C155.546 181.518 141.37 175.539 133.413 170.767C121.185 176.695 107.773 179.776 94.1834 179.779ZM94.1834 14.8313C82.7233 14.8348 71.4157 17.4581 61.1246 22.5007C50.8335 27.5433 41.8313 34.8717 34.806 43.9259C27.7807 52.9801 22.9182 63.5206 20.59 74.7417C18.2619 85.9628 18.5297 97.5677 21.3731 108.669C24.2164 119.771 29.56 130.076 36.9955 138.797C44.431 147.517 53.7616 154.422 64.2744 158.985C74.7871 163.547 86.2037 165.646 97.6518 165.121C109.1 164.596 120.276 161.461 130.327 155.955L134.336 153.752L138.063 156.405C142.322 159.502 147.159 161.715 152.288 162.912L140.479 149.676L145.656 144.812C153.174 137.808 159.162 129.324 163.243 119.894C167.324 110.464 169.409 100.291 169.368 90.0157C169.345 70.0825 161.417 50.9721 147.322 36.8772C133.227 22.7823 114.117 14.8538 94.1834 14.8313Z" fill="#E6E6E6"/>
<path id="Vector_2" d="M176.657 90.0156C176.65 71.9474 170.707 54.3818 159.743 40.0205C148.779 25.6593 133.4 15.2977 115.972 10.5294C98.5448 5.76106 80.0332 6.85017 63.2848 13.6292C46.5365 20.4081 32.479 32.5016 23.2744 48.0494C14.0697 63.5973 10.2278 81.7385 12.3394 99.683C14.4511 117.627 22.3993 134.381 34.9617 147.368C47.5242 160.354 64.005 168.854 81.8695 171.56C99.734 174.266 117.993 171.028 133.837 162.344C139.539 166.4 153.446 174.491 167.186 168.663L150.647 150.124C158.869 142.421 165.42 133.11 169.894 122.771C174.368 112.431 176.67 101.282 176.657 90.0156Z" fill="white"/>
<path id="Vector_3" d="M110.639 73.1527H51.7065V78.6254H110.639V73.1527Z" fill="#6C63FF"/>
<path id="Vector_4" d="M154.42 92.0845H51.7065V97.5572H154.42V92.0845Z" fill="#E6E6E6"/>
<path id="Vector_5" d="M154.32 111.016H51.7065V116.489H154.32V111.016Z" fill="#E6E6E6"/>
</g>
<defs>
<filter id="filter0_d" x="0.282349" y="0.0614929" width="187.718" height="187.717" filterUnits="userSpaceOnUse" color-interpolation-filters="sRGB">
<feFlood flood-opacity="0" result="BackgroundImageFix"/>
<feColorMatrix in="SourceAlpha" type="matrix" values="0 0 0 0 0 0 0 0 0 0 0 0 0 0 0 0 0 0 127 0"/>
<feOffset dy="4"/>
<feGaussianBlur stdDeviation="2"/>
<feColorMatrix type="matrix" values="0 0 0 0 0 0 0 0 0 0 0 0 0 0 0 0 0 0 0.25 0"/>
<feBlend mode="normal" in2="BackgroundImageFix" result="effect1_dropShadow"/>
<feBlend mode="normal" in="SourceGraphic" in2="effect1_dropShadow" result="shape"/>
</filter>
</defs>
</svg>
