<svg width="195" height="195" viewBox="0 0 195 195" fill="none" xmlns="http://www.w3.org/2000/svg">
<g id="TextMessage2" filter="url(#filter0_d)">
<path id="Vector" d="M56.4111 177.304C48.1458 182.261 33.42 188.472 18.3718 182.089L8.64421 177.962L28.1375 156.111C12.5821 138.959 3.97635 116.627 4.00005 93.4721C4.02375 70.3174 12.6752 48.0025 28.2657 30.883C43.8562 13.7636 65.2668 3.06829 88.3183 0.884768C111.37 -1.29875 134.408 5.1862 152.935 19.0739C171.463 32.9616 184.15 53.2552 188.521 75.9936C192.892 98.732 188.633 122.283 176.574 142.05C164.516 161.817 145.524 176.381 123.306 182.9C101.088 189.418 77.2375 187.423 56.4111 177.304V177.304ZM19.0619 93.4199C19.019 104.094 21.1852 114.661 25.4243 124.457C29.6634 134.253 35.8838 143.066 43.6941 150.341L49.071 155.394L36.8046 169.144C42.1321 167.9 47.1564 165.602 51.5808 162.384L55.4526 159.629L59.6168 161.917C74.6286 170.148 91.9291 173.219 108.857 170.658C125.785 168.097 141.402 160.045 153.306 147.741C165.211 135.436 172.743 119.562 174.744 102.559C176.746 85.5558 173.105 68.3661 164.383 53.6342C155.661 38.9022 142.34 27.444 126.469 21.0222C110.599 14.6005 93.0582 13.5708 76.5455 18.0916C60.0327 22.6124 45.4626 32.4334 35.0766 46.0436C24.6905 59.6539 19.0638 76.2995 19.0619 93.4199V93.4199Z" fill="#6C63FF"/>
<path id="Vector_2" d="M11.4899 93.4198C11.4973 74.6507 17.6705 56.4038 29.0601 41.4854C40.4496 26.5671 56.4248 15.8036 74.5285 10.8503C92.6322 5.89705 111.862 7.0284 129.26 14.0703C146.658 21.1123 161.261 33.6748 170.822 49.8257C180.384 65.9767 184.375 84.8216 182.181 103.462C179.988 122.103 171.731 139.506 158.682 152.996C145.632 166.487 128.512 175.316 109.954 178.127C91.3968 180.938 72.4299 177.574 55.9706 168.554C50.0484 172.767 35.601 181.172 21.3287 175.118L38.5087 155.859C29.9684 147.857 23.1633 138.186 18.5156 127.445C13.8678 116.704 11.4764 105.123 11.4899 93.4198Z" fill="white"/>
<path id="Vector_3" opacity="0.1" d="M167.691 92.9871C167.69 71.5766 159.672 50.9425 145.217 35.1483C130.762 19.354 110.917 9.5444 89.5906 7.65115C92.0862 7.43256 94.6105 7.31427 97.1628 7.31427C119.88 7.32203 141.663 16.3517 157.724 32.4176C173.784 48.4835 182.806 70.2703 182.806 92.9871C182.806 115.704 173.784 137.491 157.724 153.557C141.663 169.622 119.88 178.652 97.1628 178.66C94.6144 178.66 92.0944 178.54 89.6027 178.322C110.927 176.426 130.769 166.615 145.221 150.821C159.674 135.028 167.69 114.395 167.691 92.9871Z" fill="black"/>
<path id="Vector_4" d="M109.187 75.9028H47.969V81.5878H109.187V75.9028Z" fill="#6C63FF"/>
<path id="Vector_5" d="M154.667 95.5689H47.969V101.254H154.667V95.5689Z" fill="#6C63FF"/>
<path id="Vector_6" d="M154.562 115.235H47.969V120.92H154.562V115.235Z" fill="#6C63FF"/>
</g>
<defs>
<filter id="filter0_d" x="0" y="0.469696" width="194.195" height="194.195" filterUnits="userSpaceOnUse" color-interpolation-filters="sRGB">
<feFlood flood-opacity="0" result="BackgroundImageFix"/>
<feColorMatrix in="SourceAlpha" type="matrix" values="0 0 0 0 0 0 0 0 0 0 0 0 0 0 0 0 0 0 127 0"/>
<feOffset dy="4"/>
<feGaussianBlur stdDeviation="2"/>
<feColorMatrix type="matrix" values="0 0 0 0 0 0 0 0 0 0 0 0 0 0 0 0 0 0 0.25 0"/>
<feBlend mode="normal" in2="BackgroundImageFix" result="effect1_dropShadow"/>
<feBlend mode="normal" in="SourceGraphic" in2="effect1_dropShadow" result="shape"/>
</filter>
</defs>
</svg>
